<svg xmlns="http://www.w3.org/2000/svg" viewBox="0 0 64 64">
    <rect x="18" y="18" width="22" height="34" rx="4" fill="#F2C94C"/>
    <rect x="18" y="26" width="22" height="3" fill="#E1B12C" opacity="0.8"/>
    <path d="M40 24h6c5 0 8 3 8 8s-3 8-8 8h-6V24z" fill="#F2C94C"/>
    <path d="M42 28h4c2.6 0 4 1.5 4 4s-1.4 4-4 4h-4v-8z" fill="#F7D97A"/>
    <path d="M18 18c0-5 4-8 9-8 3 0 6 1 7 3 1-2 3-3 6-3 5 0 8 3 8 8v4H18v-4z" fill="#FFFFFF"/>
    <circle cx="24" cy="12" r="3" fill="#FFFFFF"/>
    <circle cx="32" cy="10" r="4" fill="#FFFFFF"/>
    <circle cx="40" cy="12" r="3" fill="#FFFFFF"/>
</svg>
